<?xml version="1.0" encoding="utf-8"?>
<!-- Generator: Adobe Illustrator 24.1.2, SVG Export Plug-In . SVG Version: 6.00 Build 0)  -->
<svg version="1.1" id="Layer_1" xmlns="http://www.w3.org/2000/svg" xmlns:xlink="http://www.w3.org/1999/xlink" x="0px" y="0px"
	 viewBox="0 0 495.3 495.4" style="enable-background:new 0 0 495.3 495.4;" xml:space="preserve">
<g>
	<g>
		<path d="M243.5,297.9c0.5,0.1,0.7,0.4,0.9,0.8c0.2,0.4,0.1,0.9-0.1,1.3c-0.1,0.2-0.2,0.3-0.3,0.4c-2.8,3.2-5.4,6.5-8.1,9.7
			c-0.8,1-1.6,1.9-2.4,2.9c-3.5,4.3-7.1,8.5-10.8,12.4c-3.9,4.2-7.8,8.1-11.6,11.6c-4.6,4.2-8.9,7.8-12.8,10.6
			c-5,3.6-9.7,6.5-14.4,8.7c-2.8,1.3-5.5,2.2-8.1,2.9c-3,0.7-5.8,1.1-8.5,1.1c-0.1,0-0.2,0-0.3,0c-3.1,0-6.1-0.5-8.9-1.6
			c-2.8-1-5.4-2.5-7.9-4.5c-2.2-1.8-4.2-3.9-6.1-6.5c-0.1-0.2-0.3-0.4-0.4-0.5c0-0.1-0.1-0.1-0.1-0.1c-0.3-0.3-0.5-0.8-0.8-1.2
			l-1.4-2.2c-0.7-1.1-1.3-2.2-1.8-3.4c-1.3-2.7-2.4-5.4-3.1-8.1c-0.8-2.8-1.3-5.7-1.5-8.6c-0.2-2.8-0.2-5.8,0.1-8.7
			c0.3-2.7,0.8-5.6,1.6-8.5c0.7-2.7,1.7-5.4,2.8-8.1c1-2.5,2.2-5.1,3.6-7.6c2.4-4.6,5.6-9.3,9.2-14.1c3.4-4.3,7.1-8.5,11.1-12.4
			c4-3.9,8.1-7.6,12.6-11c3.6-2.8,7.1-5.2,10.6-7.2c-0.5-0.1-1-0.1-1.5-0.1c-2.1-0.2-4-0.5-5.6-0.8c-1.8-0.3-3.7-0.8-5.5-1.4
			c-4.4-1.5-7.9-3.4-10.4-6.1c-1.5-1.5-2.8-3.2-3.7-5.2c-0.9-1.8-1.5-3.8-1.8-6.1c-0.5-3.6-0.1-7.5,1.1-11.8
			c0.9-3.4,2.4-6.9,4.3-10.5c0.9-1.7,1.8-3.3,2.9-4.9c0.9-1.5,2-3,3.4-4.5c0.7-0.9,1.3-1.6,1.8-2.2c0.6-0.7,1.3-1.5,2-2.2
			c1.3-1.4,2.8-2.7,4.2-4c3-2.6,6.2-4.9,9.4-6.8c1.7-0.9,3.4-1.8,5.2-2.6c1.8-0.8,3.6-1.5,5.5-2c1.9-0.6,3.8-1.1,5.8-1.4
			c0.3-0.1,0.7-0.1,0.9-0.1l1.3-0.2c0.2,0,0.4,0,0.5,0l0.6-0.1c0.4-0.1,0.9-0.1,1.3-0.1c0.1,0,0.2,0,0.3,0c0,0,0,0,0.1,0
			c0.3,0,0.7,0,1.2,0.1c2.5,0.2,4.7,0.9,6.5,2.2l0.1,0.1l0.7,0.6c0.1,0.1,0.2,0.2,0.3,0.3l0.5,0.5c0.1,0.1,0.3,0.3,0.5,0.5v0.1
			l0.5,0.7c0.2,0.3,0.4,0.5,0.5,0.8l0.1,0.1c0.1,0.1,0.1,0.2,0.1,0.3c0.1,0.2,0.2,0.4,0.3,0.7l0.1,0.3c0.2,0.5,0.3,0.9,0.5,1.5
			c0.5,2.1,0.4,4.4-0.2,6.7c-0.5,1.9-1.3,3.9-2.4,5.8c-1.9,3.2-4.6,6.3-7.9,9.1l-0.4,0.3c-0.6,0.5-1.3,1.1-1.9,1.5
			c-0.1,0.1-0.3,0.2-0.4,0.3c-0.3,0.2-0.5,0.4-0.8,0.6l-2,1.4c-0.1,0.1-0.2,0.1-0.3,0.2l-0.4,0.3c-0.3,0.1-0.5,0.3-0.8,0.5l-0.5,0.3
			c-0.6,0.5-1.3,0.9-1.9,1.3c-0.7,0.5-1.4,0.7-2.1,0.6c-0.8-0.1-1.5-0.5-2-1.1c-0.2-0.3-0.2-0.5-0.1-0.8c0.1-0.3,0.3-0.5,0.6-0.8
			c0.3-0.3,0.6-0.5,0.9-0.7c0.3-0.2,0.6-0.4,0.9-0.5c0.2-0.1,0.3-0.2,0.3-0.2c4.7-2.4,8.4-4.9,11-7.4c2.6-2.6,4.4-4.6,5.2-6.1
			c0.4-0.6,0.9-1.7,1.5-3.4c0.7-1.7,0.9-3.6,0.9-5.7c-0.1-2-1-3.8-2.7-5.4c-0.5-0.3-1.2-0.7-2-1.1c-0.9-0.3-1.7-0.5-2.4-0.7
			c-0.1,0-0.1,0-0.2,0c-0.7-0.2-2.6-0.1-5.5,0.3c-3,0.4-6.8,1.8-11.4,4.4c-4.7,2.6-10,6.9-15.9,13.2c-0.1,0-0.1,0.1-0.1,0.1
			c-0.9,0.7-2.7,3-5.6,6.9c-2.8,3.9-5.2,8.9-7.1,14.8c-0.9,3.5-1.2,6.7-0.8,9.4c0.2,1.6,0.6,3,1.3,4.2c0.6,1.3,1.5,2.5,2.5,3.5
			c2,2,4.7,3.5,8.1,4.6c1.6,0.5,3.2,0.9,4.8,1.3c0.6,0.1,1.2,0.2,1.8,0.3c0.3,0.1,0.5,0.1,0.7,0.1c0.9,0.1,1.7,0.2,2.6,0.3
			c3.1,0.3,6.6,0.5,10.3,0.3c1.3,0,2.6-0.1,3.9-0.1c0.9-0.1,2.2-0.3,3.8-0.3c1.7-0.1,2.9,0,3.9,0.2c0.1,0.1,0.3,0.1,0.4,0.1
			c0.3,0.1,0.5,0.3,0.8,0.4c0.3,0.1,0.5,0.3,0.6,0.5c0.4,0.7,0.5,1.5,0.3,2.2c-0.3,1.1-1,1.8-2,2.1l-1.1,0.2c-2,0.2-4,0.4-5.8,0.5
			c-0.3,0.1-0.7,0.2-1,0.3c-2,0.7-4.4,1.8-6.9,3.2c-4.2,2.2-8.5,5.2-13.2,8.7c-8.4,6.5-15.9,14-22.4,22.4c-3.5,4.5-6.3,8.9-8.7,13.2
			c-1.3,2.4-2.4,4.7-3.4,7c-1,2.4-1.8,4.9-2.4,7.3c-0.7,2.5-1.2,5-1.5,7.5c-0.3,2.6-0.3,5.1-0.2,7.6c0.2,2.5,0.6,5,1.2,7.4
			c0.7,2.4,1.5,4.7,2.6,7.1c0.5,1,1,2,1.5,2.9l0.3,0.5l1.1,1.6c0.2,0.3,0.4,0.7,0.7,1c0.1,0.2,0.3,0.4,0.4,0.6c1.6,2.2,3.2,4,5,5.4
			c1.8,1.6,3.9,2.8,6.1,3.6c2.2,0.9,4.6,1.3,7,1.3c4.4-0.1,9.2-1.2,14.6-3.4c8.5-3.4,16.9-8.7,25.1-15.9
			c8.2-7.1,15.4-14.2,21.5-21.2c6.1-6.9,10.3-11.8,12.5-14.7c0.7-0.9,1.1-1.3,1.2-1.4C242.8,297.8,243.2,297.8,243.5,297.9z"/>
		<path d="M359.8,140.4c-1.1,3.4-2.3,6.4-3.9,8.9c-0.9,1.6-1.7,3.2-2.4,5c-15.4,36.5-31.7,79.4-48.7,128.8
			c-3.4,9.9-6.7,18.4-9.8,25.5c-1.3,3.2-2.9,6.3-5,9.5c-2.1,3.1-4.3,4.6-6.6,4.6c-0.1,0-0.2,0-0.3-0.1c-2.4-0.1-4.5-1.9-6.2-5.2
			c-1.1-2-2-4.6-2.9-7.7c-4.2-14.4-7.7-28.3-10.6-41.8c-2.7-12.1-5.3-24.1-7.7-35.9l-0.7-3.3c-1.6-6.9-2.7-14.5-3.4-22.7v-0.1
			c-0.1-0.3,0-0.7,0.1-1.3c0.1-0.6,0.4-1.2,0.9-1.8c0.4-0.5,1-0.7,1.7-0.8c0.7,0,1.3,0.2,1.7,0.6c0.5,0.5,0.9,1.1,1.1,1.7
			c0.2,0.6,0.3,1.1,0.4,1.7c0,0.1,0,0.3,0.1,0.4c0.5,2.8,1.1,5.5,1.6,8.3l0.1,0.7c1.4,6.8,2.7,13.7,4.2,20.7
			c5.2,25.3,10.8,49.2,17,71.6c0.1,0.5,0.3,1,0.4,1.6c0.3,1.3,0.6,2.4,1.1,3.4c0.5,1,1.3,1.6,2.3,1.7c0.7,0.1,1.5-0.3,2.3-0.9
			c0.9-0.6,1.5-1.4,2-2.4c2.2-4.3,4.6-10.1,7.2-17.3c0.6-1.5,1.2-3,1.9-4.6c0.7-1.5,1.3-2.8,1.8-4.2c0.5-1.4,1.1-2.8,1.7-4.2
			c0.7-1.9,1.5-3.9,2.2-5.8c0.5-1.5,1-2.9,1.5-4.4c0.9-2.6,1.8-5.2,2.8-7.9c0.5-1.5,1.1-2.9,1.7-4.4c0.9-2,1.6-4.1,2.3-6
			c1.5-4.2,3.1-8.6,4.8-13.4c5-13.9,10.3-28.7,16-44.1c5.7-15.5,10.8-28.9,15.4-40.2c4.6-11.4,7.7-17.8,9.3-19.2
			c0.4-0.2,0.7-0.2,1.1,0.1c0.4,0.3,0.7,0.6,1,0.9C360.1,137.1,360.3,138.5,359.8,140.4z"/>
	</g>
	<g>
		<g>
			<g>
				<path d="M137.6,442.4l2.1,1.1l-9.8,17.6l10.9,6l-1,1.8l-12.9-7.2L137.6,442.4z"/>
				<path d="M160.2,476.7c-1.3-1.5-2.2-3.3-2.5-5.2c-0.3-2-0.1-3.9,0.6-5.9c0.7-2,1.9-3.6,3.4-4.9c1.5-1.3,3.3-2,5.3-2.3
					c2-0.3,4.1-0.1,6.1,0.7s3.8,1.9,5.1,3.4c1.3,1.5,2.2,3.3,2.5,5.2c0.4,2,0.2,4-0.6,6s-1.9,3.6-3.4,4.9c-1.6,1.3-3.3,2-5.3,2.3
					c-2,0.3-4,0.1-6.1-0.7C163.2,479.4,161.5,478.3,160.2,476.7z M170.9,478.8c1.6-0.3,3-0.9,4.3-1.9c1.2-1,2.2-2.4,2.8-4
					c0.6-1.6,0.8-3.2,0.5-4.8c-0.3-1.6-0.9-3-2-4.2c-1.1-1.2-2.4-2.2-4-2.8c-1.6-0.6-3.3-0.8-4.9-0.5c-1.6,0.2-3,0.9-4.3,1.9
					c-1.3,1-2.2,2.4-2.8,4c-0.6,1.6-0.8,3.2-0.5,4.8c0.3,1.6,0.9,3,2,4.3c1.1,1.2,2.4,2.2,4.1,2.8
					C167.6,478.9,169.3,479,170.9,478.8z"/>
				<path d="M213.4,481.4l2.2,0.4l-1.6,8.3c-1.2,0.7-2.5,1.2-4,1.4c-1.5,0.2-3,0.2-4.5-0.1c-2.2-0.4-4.1-1.3-5.6-2.6
					c-1.6-1.3-2.7-2.9-3.4-4.8c-0.7-1.9-0.8-3.9-0.4-6c0.4-2.1,1.3-3.9,2.6-5.4c1.3-1.5,2.9-2.6,4.9-3.2c1.9-0.6,4-0.7,6.2-0.3
					c1.7,0.3,3.1,0.9,4.4,1.7c1.3,0.8,2.3,1.8,3.1,3l-1.7,1.2c-1.4-2-3.4-3.3-6.1-3.8c-1.8-0.3-3.4-0.3-5,0.3
					c-1.6,0.5-2.9,1.4-4,2.6c-1.1,1.2-1.8,2.7-2.1,4.4c-0.3,1.7-0.2,3.3,0.3,4.8c0.6,1.5,1.5,2.8,2.7,3.9c1.3,1.1,2.8,1.8,4.5,2.1
					c2.2,0.4,4.2,0.2,6-0.6L213.4,481.4z"/>
				<path d="M239,493.8c-1.8-1-3.1-2.4-4.1-4.1c-1-1.7-1.4-3.7-1.4-5.8s0.6-4,1.6-5.7c1-1.7,2.5-3,4.3-3.9c1.8-0.9,3.8-1.4,6-1.3
					c2.2,0.1,4.2,0.6,5.9,1.6c1.7,1,3.1,2.4,4.1,4.1c1,1.7,1.4,3.7,1.4,5.8c0,2.1-0.6,4.1-1.7,5.7c-1.1,1.7-2.5,3-4.3,3.9
					c-1.8,0.9-3.8,1.4-6,1.3C242.7,495.4,240.8,494.8,239,493.8z M249.8,492.3c1.4-0.8,2.6-1.8,3.4-3.2c0.8-1.4,1.3-2.9,1.3-4.7
					c0-1.7-0.3-3.3-1.1-4.7c-0.8-1.4-1.9-2.5-3.3-3.4c-1.4-0.8-3-1.3-4.7-1.3c-1.8,0-3.4,0.3-4.8,1.1c-1.4,0.8-2.6,1.8-3.4,3.2
					c-0.8,1.4-1.3,2.9-1.3,4.7c0,1.7,0.3,3.3,1.1,4.7c0.8,1.4,1.9,2.5,3.3,3.4c1.4,0.8,3,1.3,4.7,1.3
					C246.7,493.4,248.3,493,249.8,492.3z"/>
				<path d="M312.4,487.9l-3.7-2.4c-1.4,2.4-3.6,3.9-6.6,4.5c-1.4,0.3-2.7,0.4-3.9,0.1c-1.2-0.2-2.2-0.7-3-1.4
					c-0.8-0.7-1.3-1.6-1.6-2.7c-0.3-1.3-0.1-2.6,0.5-3.8c0.6-1.2,1.8-2.6,3.5-4.2c-1.3-0.8-2.2-1.6-2.7-2.3
					c-0.6-0.7-0.9-1.4-1.1-2.3c-0.3-1.4-0.1-2.6,0.8-3.7c0.8-1.1,2-1.8,3.7-2.2c1.5-0.3,2.9-0.2,3.9,0.3c1.1,0.6,1.8,1.5,2.1,2.9
					c0.2,1.1,0.1,2.1-0.4,3.1c-0.5,1-1.6,2.2-3.1,3.7l7.3,4.8c0.4-1.3,0.6-2.8,0.5-4.5l1.9,0.2c0,2-0.2,3.8-0.8,5.4l3.8,2.5
					L312.4,487.9z M307.1,484.5l-8-5.3c-1.5,1.3-2.5,2.5-3,3.4c-0.5,0.9-0.6,1.9-0.4,2.8c0.3,1.2,1,2,2.1,2.5c1.1,0.5,2.5,0.6,4,0.2
					C304.2,487.7,306,486.4,307.1,484.5z M296.2,470.8c-0.5,0.7-0.6,1.5-0.4,2.3c0.1,0.6,0.4,1.2,0.9,1.7c0.5,0.5,1.3,1.1,2.5,1.9
					c1.4-1.3,2.3-2.3,2.7-3c0.5-0.8,0.6-1.5,0.4-2.3c-0.2-0.8-0.6-1.4-1.3-1.8c-0.7-0.4-1.5-0.4-2.5-0.2
					C297.4,469.7,296.7,470.2,296.2,470.8z"/>
				<path d="M368.3,440.2l3.7,23.1l-2.2,1.1l-14.5-13.8l3,19.8l-2.2,1.1l-16.9-16.2l2.1-1.1l14.5,13.9l-3-20l1.9-1l14.7,14l-3.1-20
					L368.3,440.2z"/>
				<path d="M406,437.2l1.2,1.6l-12.4,9.6l-13.6-17.5l12-9.3l1.2,1.6l-10.2,7.9l4.8,6.2l9.1-7l1.2,1.6l-9.1,7l5.1,6.5L406,437.2z"/>
				<path d="M427.2,406.1c1.2,0.1,2.4,0.6,3.5,1.6c1.4,1.3,2,2.8,1.7,4.6c-0.2,1.7-1.3,3.6-3.2,5.6l-7,7.4L406.1,410l6.6-6.9
					c1.7-1.8,3.4-2.8,5-3.1c1.7-0.3,3.1,0.2,4.5,1.4c0.9,0.8,1.4,1.8,1.6,2.8s0.1,2.1-0.3,3.1C424.7,406.4,426,406,427.2,406.1z
					 M409.1,409.6l5.8,5.6l4.9-5.1c1.2-1.3,1.9-2.5,2.1-3.7c0.2-1.2-0.2-2.2-1.2-3.1c-1-0.9-2-1.2-3.2-1c-1.2,0.2-2.4,1-3.6,2.3
					L409.1,409.6z M430.1,412.6c0.2-1.2-0.2-2.3-1.2-3.3c-2-1.9-4.4-1.4-7.2,1.5l-5.4,5.7l6,5.7l5.4-5.7
					C429.1,415.1,429.9,413.8,430.1,412.6z"/>
				<path d="M439.9,368l4.4-7.9c1.2-2,2.6-3.6,4.3-4.7c1.7-1.1,3.5-1.7,5.5-1.7c2,0,3.9,0.5,5.7,1.5c1.9,1.1,3.3,2.4,4.3,4.1
					c1,1.7,1.4,3.6,1.4,5.6s-0.7,4.1-1.8,6.1l-4.4,7.9L439.9,368z M461.8,370.2c1-1.7,1.5-3.4,1.5-5c0-1.6-0.3-3.2-1.1-4.5
					s-2-2.5-3.5-3.4c-1.5-0.9-3.1-1.3-4.7-1.3c-1.6,0-3.1,0.5-4.5,1.4c-1.4,0.9-2.6,2.2-3.5,3.9l-3.2,5.7l15.8,8.9L461.8,370.2z"/>
				<path d="M481.2,326.7l1.9,0.7l-5.4,14.7l-20.8-7.7l5.3-14.3l1.9,0.7l-4.5,12.1l7.4,2.7l4-10.8l1.9,0.7l-4,10.8l7.7,2.9
					L481.2,326.7z"/>
				<path d="M488.1,307c-0.8,1.4-1.8,2.4-2.8,3l-1.6-1.3c1-0.6,1.8-1.5,2.6-2.7s1.3-2.5,1.6-3.9c0.4-1.9,0.4-3.5-0.1-4.6
					c-0.5-1.1-1.3-1.8-2.5-2.1c-0.9-0.2-1.6-0.1-2.2,0.3c-0.6,0.4-1.2,1-1.6,1.7c-0.4,0.7-1,1.7-1.6,3c-0.8,1.5-1.4,2.8-2,3.7
					c-0.6,0.9-1.4,1.6-2.3,2.1c-0.9,0.5-2.1,0.6-3.4,0.4c-1.1-0.2-2-0.7-2.8-1.5c-0.8-0.8-1.3-1.8-1.6-3.1c-0.3-1.3-0.2-2.9,0.2-4.6
					c0.3-1.2,0.7-2.4,1.3-3.5c0.6-1.1,1.3-2,2.1-2.8l1.7,1.2c-0.8,0.8-1.5,1.7-2,2.6c-0.5,1-0.9,1.9-1.1,2.9
					c-0.4,1.9-0.4,3.4,0.2,4.5c0.5,1.1,1.4,1.8,2.5,2.1c0.9,0.2,1.6,0.1,2.3-0.3c0.6-0.4,1.2-1,1.6-1.7c0.5-0.7,1-1.7,1.6-3
					c0.7-1.5,1.4-2.7,2-3.6c0.6-0.9,1.4-1.6,2.3-2.1c0.9-0.5,2-0.6,3.4-0.3c1.1,0.2,2,0.7,2.8,1.5c0.8,0.8,1.3,1.8,1.6,3.2
					c0.3,1.3,0.2,2.9-0.2,4.7C489.6,304.1,489,305.6,488.1,307z"/>
				<path d="M471.8,274l0.2-2.3l22.1,2.2l-0.2,2.3L471.8,274z"/>
				<path d="M483.9,237.7l-0.1-2.3l8.5-0.2c0.9,1,1.7,2.2,2.2,3.6c0.5,1.4,0.8,2.9,0.8,4.5c0.1,2.2-0.4,4.2-1.3,6
					c-0.9,1.8-2.2,3.2-3.9,4.3c-1.7,1.1-3.6,1.6-5.7,1.7c-2.1,0.1-4.1-0.4-5.8-1.4c-1.7-1-3.1-2.3-4.1-4.1c-1-1.7-1.6-3.7-1.6-6
					c0-1.7,0.2-3.3,0.7-4.7c0.5-1.4,1.3-2.6,2.3-3.6l1.5,1.4c-1.7,1.8-2.5,4.1-2.4,6.8c0,1.8,0.5,3.4,1.3,4.8c0.8,1.4,2,2.5,3.4,3.3
					s3,1.2,4.7,1.1c1.7,0,3.3-0.5,4.7-1.4c1.4-0.9,2.4-2,3.2-3.5c0.8-1.5,1.1-3.1,1.1-4.9c-0.1-2.3-0.7-4.2-1.9-5.8L483.9,237.7z"/>
				<path d="M467.3,199.6l21.8-4.2l0.4,1.9l-15,17.4l17.7-3.4l0.4,2.3l-21.8,4.2l-0.4-1.9l15-17.4l-17.7,3.4L467.3,199.6z"/>
				<path d="M475.8,160l1.9-0.7l5.3,14.8l-20.9,7.5l-5.2-14.3l1.9-0.7l4.4,12.1l7.4-2.7l-3.9-10.8l1.9-0.7l3.9,10.8l7.8-2.8
					L475.8,160z"/>
				<path d="M462.2,127.7l-3.9,7.9c0.3,0.5,0.6,1,0.9,1.5l2.8,5.2l6.2-3.4l1.1,2.1L450,151.6l-4-7.3c-1.4-2.5-1.8-4.8-1.4-6.8
					c0.4-2.1,1.7-3.6,3.8-4.8c1.5-0.8,3-1.1,4.5-0.9c1.5,0.2,2.8,0.9,4.1,2.1l4.1-8.4L462.2,127.7z M453.9,134.3
					c-1.4-0.6-2.9-0.4-4.4,0.4c-1.6,0.9-2.5,2-2.8,3.5c-0.3,1.5,0.1,3.2,1.1,5.1l2.8,5.2l9.8-5.3l-2.8-5.2
					C456.5,136.1,455.3,134.9,453.9,134.3z"/>
			</g>
			<g>
				<path d="M37.8,323.6l2.4-1l7.5,18.7L21.2,352L14,333.8l2.4-1l6.1,15.4l9.4-3.8l-5.5-13.7l2.4-1l5.5,13.7l9.8-3.9L37.8,323.6z"/>
				<path d="M0.6,272.6l28.2-4.2l0.4,2.9l-22.6,3.3l20.6,8.3l0.2,1.4l-17.2,13.9l22.5-3.3l0.4,2.9l-28.2,4.1l-0.4-2.5l19.1-15.3
					L1,275.1L0.6,272.6z"/>
				<path d="M3.3,207.9l28.4,3.2l-0.3,2.9l-22.7-2.5l17.8,13.3l-0.2,1.4l-20.2,9l22.6,2.5l-0.3,2.9L0,237.4l0.3-2.5l22.4-10L3,210.4
					L3.3,207.9z"/>
				<path d="M37.6,164.5l-5.4,14.9l6,5.8l-1.1,2.9l-22.4-22l1-2.8l31.3-2.5l-1.1,3L37.6,164.5z M34.9,164.7l-16.7,1.2l12.1,11.7
					L34.9,164.7z"/>
				<path d="M68.1,78.5l13.7,28.1l-1.9,2.3l-30-8.7l2.1-2.5l26,7.6L66.1,80.9L68.1,78.5z"/>
				<path d="M88.9,59.4l2.3-1.9l18.3,21.9l-2.3,1.9L88.9,59.4z"/>
				<path d="M139.3,25.9l13.9,24.9L151,52l-27.3-11.3L134.9,61l-2.6,1.5l-13.9-24.9l2.2-1.2l27.3,11.3l-11.3-20.2L139.3,25.9z"/>
				<path d="M197.1,22.3c1.3,0.9,2.2,2.2,2.8,4.1c0.7,2.4,0.3,4.4-1.1,6.2c-1.4,1.8-3.8,3.1-7.2,4.1L179,40.2l-7.9-27.4L183,9.4
					c3.1-0.9,5.6-0.9,7.6-0.2c2,0.7,3.4,2.2,4,4.5c0.4,1.5,0.4,2.9,0,4.2c-0.4,1.3-1.2,2.4-2.4,3.3C194.2,21,195.8,21.4,197.1,22.3z
					 M196.1,31.4c1-1.2,1.3-2.7,0.8-4.5c-1-3.4-3.9-4.4-8.9-3l-9.7,2.8l3,10.3l9.7-2.8C193.4,33.5,195.1,32.6,196.1,31.4z
					 M174.8,14.4l2.8,10l8.7-2.5c2.2-0.6,3.8-1.6,4.8-2.7s1.2-2.6,0.7-4.2c-0.5-1.6-1.4-2.7-2.9-3.2c-1.4-0.5-3.3-0.4-5.5,0.2
					L174.8,14.4z"/>
				<path d="M247.5,25.8l0.2,2.6l-20.1,1.3l-1.8-28.5L245.2,0l0.2,2.6l-16.5,1l0.6,10.1l14.7-0.9l0.2,2.6l-14.7,0.9l0.7,10.6
					L247.5,25.8z"/>
				<path d="M292.8,32.5l-5.1-10c-0.7,0-1.5-0.1-2.3-0.2l-7.6-1.1l-1.3,9l-3-0.4l4.2-28.2L288.2,3c3.6,0.5,6.3,1.8,8.1,3.8
					c1.8,2,2.5,4.5,2,7.6c-0.3,2.2-1.2,4-2.5,5.3c-1.3,1.4-3.1,2.2-5.3,2.6L296,33L292.8,32.5z M292.4,18.8c1.7-1,2.7-2.6,3-4.9
					c0.3-2.3-0.1-4.1-1.4-5.6c-1.3-1.4-3.3-2.4-6.1-2.8l-7.5-1.1l-2.1,14.2l7.5,1.1C288.5,20.1,290.7,19.8,292.4,18.8z"/>
				<path d="M344.5,33.7l2.7,1l-3.9,10.1c-1.7,0.6-3.5,0.9-5.4,0.8c-1.9-0.1-3.8-0.5-5.7-1.2c-2.7-1-4.8-2.5-6.5-4.5
					c-1.7-2-2.7-4.3-3.1-6.8c-0.4-2.5-0.1-5.1,0.9-7.6c1-2.6,2.5-4.6,4.5-6.2c2-1.6,4.3-2.6,6.9-2.9s5.2,0,7.9,1.1
					c2,0.8,3.8,1.8,5.2,3.1c1.4,1.3,2.5,2.8,3.2,4.5l-2.4,1.1c-1.3-2.9-3.6-5-6.8-6.2c-2.2-0.8-4.3-1.1-6.4-0.8
					c-2.1,0.3-4,1.1-5.6,2.4c-1.6,1.3-2.9,3-3.7,5.1c-0.8,2.1-1,4.1-0.7,6.2c0.3,2.1,1.2,3.9,2.5,5.5c1.3,1.6,3.1,2.9,5.3,3.7
					c2.7,1.1,5.3,1.3,7.8,0.6L344.5,33.7z"/>
			</g>
		</g>
		<g>
			<circle cx="76.3" cy="409" r="9.1"/>
			<circle cx="409.3" cy="76" r="9.1"/>
		</g>
	</g>
</g>
</svg>
